<?xml version="1.0" encoding="utf-8"?>
<!-- Generator: Adobe Illustrator 27.0.0, SVG Export Plug-In . SVG Version: 6.00 Build 0)  -->
<svg version="1.1" id="Layer_2" xmlns="http://www.w3.org/2000/svg" xmlns:xlink="http://www.w3.org/1999/xlink" x="0px" y="0px"
	 viewBox="0 0 445.6 512" style="enable-background:new 0 0 445.6 512;" xml:space="preserve">
<path d="M384.6,266H61c-33.7,0-61,27.3-61,61l9,166.1c0.6,10.6,9.3,18.9,19.9,18.9h0c11.5,0,20.6-9.6,19.9-21L40,327
	c0-11.6,9.4-21,21-21h323.7c11.5,0,21,9.4,21,21l-8.9,164c-0.6,11.4,8.5,21,19.9,21h0c10.6,0,19.4-8.3,19.9-18.9l9-166.1
	C445.6,293.3,418.3,266,384.6,266z M222.8,40c45.8,0,83,37.2,83,83s-37.2,83-83,83s-83-37.2-83-83S177,40,222.8,40 M222.8,0
	c-67.9,0-123,55.1-123,123s55.1,123,123,123s123-55.1,123-123S290.7,0,222.8,0L222.8,0z"/>
</svg>
