<?xml version="1.0" encoding="utf-8"?>
<!-- Generator: Adobe Illustrator 27.0.0, SVG Export Plug-In . SVG Version: 6.00 Build 0)  -->
<svg version="1.1" xmlns="http://www.w3.org/2000/svg" xmlns:xlink="http://www.w3.org/1999/xlink" x="0px" y="0px"
	 viewBox="0 0 323.2 635" style="enable-background:new 0 0 323.2 635;" xml:space="preserve">
<g id="Layer_2">
	<path d="M263.2,123H60c-36.6,0-64.7,32.5-59.4,68.7l57.4,392c4.3,29.5,29.6,51.3,59.4,51.3h88.3c29.8,0,55-21.8,59.4-51.3
		L300,345.2l22.5-153.5C327.8,155.5,299.8,123,263.2,123z M282.9,185.9l-20.6,140.6l-1.9,12.9l-2.5,17.2l-32.4,221.4
		c-1.4,9.8-9.9,17.1-19.8,17.1h-88.3c-9.8,0-18.4-7.4-19.8-17.1L65.1,355.7l-4.6-31.4L40.2,185.9c-1.2-7.9,2.4-13.4,4.7-16
		c2.2-2.6,7.2-6.9,15.1-6.9h203.1c8,0,12.9,4.3,15.1,6.9C280.5,172.5,284.1,178.1,282.9,185.9z M262.3,326.5l-1.9,12.9l-2.5,17.2
		c-3.9-1.1-7.5-2.3-10.9-3.5c-10.9-3.7-20.2-6.9-40.3-6.9c-20.1,0-29.5,3.2-40.3,6.9c-11.7,4-24.9,8.5-50,8.5
		c-24.2,0-36.5-2.7-48.3-5.2c-1-0.2-2-0.4-3-0.6l-4.6-31.4c5.1,0.8,9.5,1.8,13.9,2.7c7.7,1.7,15,3.2,26.1,4
		c4.6,0.3,9.8,0.5,15.9,0.5c5.5,0,10.2-0.2,14.4-0.7c11-1.1,18.1-3.6,25.9-6.2c11.7-4,24.9-8.5,50-8.5c25.1,0,38.3,4.5,50,8.5
		C258.7,325.3,260.5,325.9,262.3,326.5z M182.9,78.2c4.3-30.7,26.6-55.2,56.8-62.5l64-15.3c8-1.9,16.1,3,18.1,11.1
		c1.9,8.1-3,16.2-11.1,18.1l-64,15.4c-18.1,4.3-31.5,19.1-34.1,37.5l-5.7,40.6h-30.3L182.9,78.2z M171,163h30.3l-23.7,168
		c-4.6,0.3-9.8,0.5-15.9,0.5c-5.5,0-10.2-0.2-14.4-0.7L171,163z"/>
</g>
<g id="Layer_3">
</g>
</svg>
