<?xml version="1.0" encoding="utf-8"?>
<!-- Generator: Adobe Illustrator 27.0.0, SVG Export Plug-In . SVG Version: 6.00 Build 0)  -->
<svg version="1.1" id="Layer_1" xmlns="http://www.w3.org/2000/svg" xmlns:xlink="http://www.w3.org/1999/xlink" x="0px" y="0px"
	 viewBox="0 0 512 512" style="enable-background:new 0 0 512 512;" xml:space="preserve">
<path d="M510.9,184.3L473.1,26.9C469.2,11,455.9,0,440.7,0H71.3C56.1,0,42.8,11,39,26.9L1.1,184.3c-2.5,10.4-0.6,21.3,5.2,29.9
	c3.7,5.4,8.6,9.5,14.2,11.9c-0.3,2.6-0.5,5.2-0.5,7.8V452c0,33.1,26.9,60,60,60h76.7c33.1,0,60-26.9,60-60v-97.1c0-11,9-20,20-20
	h38.7c11,0,20,9,20,20V452c0,33.1,26.9,60,60,60H432c33.1,0,60-26.9,60-60V233.8c0-2.6-0.2-5.2-0.5-7.8c5.7-2.4,10.6-6.4,14.2-11.9
	C511.5,205.6,513.4,194.7,510.9,184.3z M373.4,40h60.3c0.8,0,1.4,0.5,1.6,1.3l35.4,147.1l0.3,1.2c-24.6,3-45.5,2.1-58.1-2.5
	c-0.4-0.1-0.8-0.3-1.3-0.5c-5.4-2.1-12.4-6-20.4-11c-6.7-4.2-10.9-11.3-11.5-19.2l-4.1-58l-4-56.7C371.7,40.8,372.5,40,373.4,40z
	 M189.2,142l3-42.3l4.1-58l0-0.1c0.1-0.9,0.8-1.5,1.7-1.5h116.1c0.9,0,1.6,0.7,1.7,1.5l0,0.1l4.1,58l3,42.3
	c1.4,19.3-9.8,37.5-27.8,44.7c-0.4,0.2-0.8,0.3-1.1,0.4c-29,10.6-46.7,10.6-75.7,0c-0.4-0.1-0.7-0.3-1.1-0.4
	C199,179.5,187.9,161.3,189.2,142z M41.3,188.3L76.6,41.3c0.2-0.7,0.8-1.3,1.6-1.3h60.3c1,0,1.7,0.8,1.7,1.8l-4,56.7l-4.1,58
	c-0.6,7.8-4.8,15-11.5,19.2c-8,5-15,8.8-20.4,11c-0.5,0.2-0.9,0.4-1.3,0.5c-12.6,4.6-33.5,5.5-58.1,2.5L41.3,188.3z M452.7,453
	c0,10.9-8.8,19.7-19.7,19.7h-78.6c-10.9,0-19.7-8.8-19.7-19.7v-98.4c0-32.6-26.4-59-59-59h-39.4c-32.6,0-59,26.4-59,59V453
	c0,10.9-8.8,19.7-19.7,19.7H79c-10.9,0-19.7-8.8-19.7-19.7V233.8c0-0.9,0.1-1.8,0.2-2.7h0c2.7,0.1,5.5,0.2,8.2,0.2
	c15.6,0,31.5-1.7,45-6.6c14.6-5.3,31.9-16.5,43.7-24.9c0.4-0.3,0.8-0.5,1.1-0.8c0.6-0.5,1.5-0.5,2.1,0c0.7,0.6,1.5,1.2,2.2,1.7
	c11.5,8.1,28.2,18.8,42.4,24c18.8,6.9,35.2,10.3,51.6,10.3c8.2,0,16.4-0.9,24.9-2.6c8.5-1.7,17.3-4.3,26.7-7.7
	c14.2-5.2,30.9-15.9,42.4-24c0.8-0.5,1.5-1.1,2.2-1.7c0.6-0.5,1.5-0.5,2.1,0c0.4,0.3,0.7,0.6,1.1,0.8c11.9,8.4,29.1,19.6,43.8,24.9
	c13.5,4.9,29.4,6.6,45,6.6c2.8,0,5.5,0,8.2-0.2c0.1,0.9,0.2,1.8,0.2,2.7V453z"/>
</svg>
