<?xml version="1.0" encoding="utf-8"?>
<!-- Generator: Adobe Illustrator 27.0.0, SVG Export Plug-In . SVG Version: 6.00 Build 0)  -->
<svg version="1.1" id="Layer_3" xmlns="http://www.w3.org/2000/svg" xmlns:xlink="http://www.w3.org/1999/xlink" x="0px" y="0px"
	 viewBox="0 0 472 512" style="enable-background:new 0 0 472 512;" xml:space="preserve">
<path d="M414.1,61L254.5,414.2V308.5c0-35.7-28.8-64.7-64.2-64.7H83.8L414.1,61 M447.8,0c-3.8,0-7.7,1-11.6,3.1L12.7,237.4
	c-22.1,12.2-13.6,46.4,11.5,46.4h166c13.4,0,24.2,11.1,24.2,24.7v178.8c0,15.6,12.2,24.7,24.5,24.7c8.6,0,17.2-4.5,21.7-14.4
	l209-462.5C477.6,17.6,464.1,0,447.8,0L447.8,0z"/>
</svg>
