<?xml version="1.0" encoding="utf-8"?>
<!-- Generator: Adobe Illustrator 27.0.0, SVG Export Plug-In . SVG Version: 6.00 Build 0)  -->
<svg version="1.1" id="Layer_1" xmlns="http://www.w3.org/2000/svg" xmlns:xlink="http://www.w3.org/1999/xlink" x="0px" y="0px"
	 viewBox="0 0 512 508.4" style="enable-background:new 0 0 512 508.4;" xml:space="preserve">
<path d="M255.1,64.7l35.3,75.2c14,29.9,41.8,50.7,74.3,55.7l85.9,13.1l-65.2,67c-21.8,22.3-31.8,54-26.8,84.8l14.9,91.9l-70.7-39.1
	c-14.6-8.1-31-12.3-47.7-12.3c-16.4,0-32.7,4.2-47.1,12l-71.1,38.8l14.8-91.1c5-30.8-5-62.6-26.8-84.9l-65.2-66.9l85.9-13.1
	c32.5-5,60.3-25.8,74.3-55.7L255.1,64.7 M255.1,0c-7.9,0-15.8,4.2-19.7,12.5L183.6,123c-8.3,17.7-24.9,30.1-44.2,33.1L18.5,174.6
	c-17.5,2.7-24.6,24-12.3,36.7l90,92.4c13,13.4,18.9,32.1,15.9,50.6L91.3,482.1c-2.3,14,8.9,25.3,21.5,25.3c3.4,0,7-0.8,10.4-2.7
	L227,448.1c8.7-4.8,18.3-7.1,28-7.1c9.7,0,19.5,2.4,28.3,7.3l103.6,57.3c3.4,1.9,7,2.8,10.5,2.8c12.6,0,23.7-11.2,21.5-25.3
	L398,354.2c-3-18.4,2.9-37.2,15.9-50.5l92.4-94.8c11.4-11.7,4.8-31.3-11.3-33.7l-124.3-19c-19.3-3-35.9-15.4-44.2-33.1L274.8,12.5
	C270.8,4.2,263,0,255.1,0L255.1,0z"/>
</svg>
