<?xml version="1.0" encoding="utf-8"?>
<!-- Generator: Adobe Illustrator 27.0.0, SVG Export Plug-In . SVG Version: 6.00 Build 0)  -->
<svg version="1.1" xmlns="http://www.w3.org/2000/svg" xmlns:xlink="http://www.w3.org/1999/xlink" x="0px" y="0px"
	 viewBox="0 0 472 512" style="enable-background:new 0 0 472 512;" xml:space="preserve">
<g id="Layer_1">
	<path d="M209,10.8c15.2-14.3,38.9-14.3,54.1,0l190.5,180.2c11.8,11.1,18.5,26.7,18.5,42.9V452c0,33.1-26.9,60-60,60h-76.7
		c-33.1,0-60-26.9-60-60v-97.1c0-11-9-20-20-20h-38.7c-11,0-20,9-20,20V452c0,33.1-26.9,60-60,60H60c-33.1,0-60-26.9-60-60V233.8
		c0-16.2,6.7-31.7,18.5-42.9L209,10.8z M249.7,52.3c-7.7-7.3-19.8-7.3-27.5,0L45.5,219.5c-3.9,3.7-6.2,8.9-6.2,14.3V453
		c0,10.9,8.8,19.7,19.7,19.7h78.6c10.9,0,19.7-8.8,19.7-19.7v-98.4c0-32.6,26.4-59,59-59h39.3c32.6,0,59,26.4,59,59V453
		c0,10.9,8.8,19.7,19.7,19.7H413c10.9,0,19.7-8.8,19.7-19.7V233.8c0-5.4-2.2-10.6-6.2-14.3L249.7,52.3z"/>
</g>
<g id="Layer_2">
</g>
</svg>
