<?xml version="1.0" encoding="utf-8"?>
<!-- Generator: Adobe Illustrator 27.0.0, SVG Export Plug-In . SVG Version: 6.00 Build 0)  -->
<svg version="1.1" id="Layer_2" xmlns="http://www.w3.org/2000/svg" xmlns:xlink="http://www.w3.org/1999/xlink" x="0px" y="0px"
	 viewBox="0 0 342 512" style="enable-background:new 0 0 342 512;" xml:space="preserve">
<path d="M171.8,40c37.5,0,71.6,14.5,96,40.7c24.6,26.4,36.6,61.9,33.8,100c-2,27.1-12.2,52.6-29.5,73.6c-2.8,3.1-5.6,6.2-8.7,9.6
	l0,0c-0.8,0.9-1.6,1.8-2.3,2.7l-3.3,3.9c-0.7,0.8-1.2,1.5-1.6,1.8c-43.4,49.1-68.7,113-85.8,161.4c-19-50.6-48-120.3-92-169.8
	l-10.1-11.4c-8.7-10.9-15.5-23-20.4-36.1C42.7,201.9,40,186.6,40,171c0-69.6,54.3-127,123.7-130.8C166.4,40.1,169.1,40,171.8,40
	L171.8,40 M171.8,0c-3.4,0-6.8,0.1-10.2,0.3C71.5,5.2,0,79.7,0,171c0,41.7,14.9,79.9,39.7,109.6c3,3.3,11.1,12.5,14,15.8
	c0,0,0,0,0,0c0,0-5.1-5.9-5.1-5.9c0,0,0,0,0,0c57,64.3,87.6,170.1,103.9,209.2c3.4,8.2,10.9,12.3,18.4,12.3s15-4.1,18.4-12.3
	c16.3-39.1,40-136.9,97.1-201.2c0,0,6.9-8.1,6.9-8.1c2.9-3.3,5.8-6.5,8.9-9.8c22.3-26.7,36.6-60.2,39.3-97
	C348.9,81.6,272.4,0,171.8,0L171.8,0z M171,121c-22.1,0-40,17.9-40,40s17.9,40,40,40c22.1,0,40-17.9,40-40S193.1,121,171,121
	L171,121z"/>
</svg>
