<?xml version="1.0" encoding="utf-8"?>
<!-- Generator: Adobe Illustrator 27.0.0, SVG Export Plug-In . SVG Version: 6.00 Build 0)  -->
<svg version="1.1" id="Layer_1" xmlns="http://www.w3.org/2000/svg" xmlns:xlink="http://www.w3.org/1999/xlink" x="0px" y="0px"
	 viewBox="0 0 427.1 512" style="enable-background:new 0 0 427.1 512;" xml:space="preserve">
<path d="M20,472h387.1c11,0,20,9,20,20v0c0,11-9,20-20,20H20c-11,0-20-9-20-20v0C0,481,9,472,20,472z M394.4,17.6l15.1,15.1
	c23.4,23.4,23.4,61.4,0,84.9l-292,292c-11.3,11.3-26.5,17.6-42.4,17.6H20c-11,0-20-9-20-20V352c0-15.9,6.3-31.2,17.6-42.4l292-292
	C333-5.9,371-5.9,394.4,17.6z M89.3,381.3l206.1-206.1c7.8-7.8,7.8-20.5,0-28.3l-15.1-15.1c-7.8-7.8-20.5-7.8-28.3,0L45.9,337.9
	c-3.8,3.8-5.9,8.8-5.9,14.1v15.1c0,11,9,20,20,20h15.1C80.5,387.1,85.5,385,89.3,381.3z M352,118.6l29.3-29.3
	c7.8-7.8,7.8-20.5,0-28.3l-15.1-15.1c-7.8-7.8-20.5-7.8-28.3,0l-29.3,29.3c-7.8,7.8-7.8,20.5,0,28.3l15.1,15.1
	C331.5,126.4,344.2,126.4,352,118.6z"/>
</svg>
