<svg width="32" height="50" viewBox="0 0 32 50" fill="none" xmlns="http://www.w3.org/2000/svg">
<path d="M32 32.8744C32 35.8847 30.985 38.482 28.9551 40.6663C26.9439 42.8322 23.8426 44.1263 19.6511 44.5485C19.2752 44.5852 18.9651 44.732 18.7207 44.989C18.4952 45.246 18.3824 45.5488 18.3824 45.8976V50H13.6458V45.7324C13.6458 45.402 13.5236 45.1083 13.2793 44.8513C13.0537 44.6127 12.7718 44.4659 12.4335 44.4108C8.39236 43.8051 5.30984 42.3642 3.1859 40.0881C1.06197 37.7937 0 34.8935 0 31.3877H9.69868C9.69868 33.0764 10.3095 34.4163 11.5313 35.4075C12.7718 36.3803 14.3789 36.8667 16.3524 36.8667C18.1944 36.8667 19.6417 36.5363 20.6943 35.8755C21.7656 35.2148 22.3013 34.3245 22.3013 33.2048C22.3013 31.9567 21.728 31.0114 20.5815 30.3689C19.4537 29.7081 17.2546 29.0015 13.9841 28.2489C9.47313 27.2394 6.17445 25.7526 4.08811 23.7885C2.02056 21.8245 0.986784 19.2639 0.986784 16.1068C0.986784 13.3535 1.91718 11.004 3.77797 9.05837C5.65756 7.1127 8.54273 5.91043 12.4335 5.45154C12.7718 5.41483 13.0537 5.27717 13.2793 5.03855C13.5236 4.79993 13.6458 4.48789 13.6458 4.10242V0H18.3824V4.26762C18.3824 4.59802 18.4858 4.8917 18.6925 5.14868C18.8993 5.3873 19.1812 5.52496 19.5383 5.56167C23.1659 6.1674 25.9101 7.57159 27.7709 9.77423C29.6317 11.9769 30.5621 14.62 30.5621 17.7037H20.8634C20.8634 16.272 20.4029 15.1523 19.4819 14.3447C18.5797 13.5371 17.3016 13.1333 15.6476 13.1333C12.3395 13.1333 10.6855 14.1612 10.6855 16.217C10.6855 17.1531 11.1836 17.9515 12.1797 18.6123C13.1947 19.2731 15.1025 19.9615 17.9031 20.6773C20.0646 21.2096 21.9254 21.797 23.4855 22.4394C25.0455 23.0819 26.5022 23.8711 27.8555 24.8073C29.2276 25.7434 30.2614 26.8906 30.9568 28.2489C31.6523 29.6072 32 31.149 32 32.8744Z" fill="url(#paint0_linear_483_1915)"/>
<defs>
<linearGradient id="paint0_linear_483_1915" x1="16.0705" y1="-0.599373" x2="16.0705" y2="53.6195" gradientUnits="userSpaceOnUse">
<stop stop-opacity="0.3"/>
<stop offset="1" stop-opacity="0"/>
</linearGradient>
</defs>
</svg>
