<svg width="50" height="50" viewBox="0 0 50 50" fill="none" xmlns="http://www.w3.org/2000/svg">
<path d="M41.6667 0H8.33333C6.1232 0 4.00358 0.877974 2.44078 2.44078C0.877974 4.00358 0 6.1232 0 8.33333V41.6667C0 43.8768 0.877974 45.9964 2.44078 47.5592C4.00358 49.122 6.1232 50 8.33333 50H41.6667C43.8768 50 45.9964 49.122 47.5592 47.5592C49.122 45.9964 50 43.8768 50 41.6667V8.33333C50 6.1232 49.122 4.00358 47.5592 2.44078C45.9964 0.877974 43.8768 0 41.6667 0ZM8.33333 5.55556H41.6667C42.4034 5.55556 43.1099 5.84821 43.6309 6.36915C44.1518 6.89008 44.4444 7.59662 44.4444 8.33333V31.5556L35.5556 23.9722C34.1783 22.839 32.4502 22.2194 30.6667 22.2194C28.8831 22.2194 27.155 22.839 25.7778 23.9722L5.55556 40.8333V8.33333C5.55556 7.59662 5.84821 6.89008 6.36915 6.36915C6.89008 5.84821 7.59662 5.55556 8.33333 5.55556Z" fill="url(#paint0_linear_483_1914)"/>
<path d="M12.3787 17.3301C14.4296 17.3301 16.0923 15.6675 16.0923 13.6165C16.0923 11.5656 14.4296 9.90294 12.3787 9.90294C10.3277 9.90294 8.66506 11.5656 8.66506 13.6165C8.66506 15.6675 10.3277 17.3301 12.3787 17.3301Z" fill="url(#paint1_linear_483_1914)"/>
<defs>
<linearGradient id="paint0_linear_483_1914" x1="25" y1="0" x2="25" y2="50" gradientUnits="userSpaceOnUse">
<stop stop-opacity="0.3"/>
<stop offset="1" stop-opacity="0"/>
</linearGradient>
<linearGradient id="paint1_linear_483_1914" x1="25" y1="0" x2="25" y2="50" gradientUnits="userSpaceOnUse">
<stop stop-opacity="0.3"/>
<stop offset="1" stop-opacity="0"/>
</linearGradient>
</defs>
</svg>
