<svg width="34" height="50" viewBox="0 0 34 50" fill="none" xmlns="http://www.w3.org/2000/svg">
<path d="M16.9205 0C17.2585 0 17.5965 0.00976563 17.9345 0.0292969C26.8918 0.507813 34 7.7832 34 16.6992C34 20.7715 32.5187 24.502 30.0532 27.4023C29.755 27.7148 28.9696 28.6035 28.6713 28.9355L28.6614 28.9453C26.0766 32.002 24.0585 35.8887 22.4877 39.502C20.8175 43.3496 19.6544 46.8848 18.8392 48.7988C18.5012 49.5996 17.7556 50 17 50C16.2444 50 15.5088 49.5996 15.1608 48.7988C13.5404 44.9707 11.1842 35.4297 5.51754 29.1504L4.83158 28.3594C4.54328 28.0371 4.25497 27.7246 3.94678 27.4023C1.72983 24.7949 0.308186 21.5234 0.0397652 17.9297C-0.685966 7.95899 6.9193 0 16.9205 0ZM17 19.6289C19.1971 19.6289 20.9766 17.8809 20.9766 15.7227C20.9766 13.5645 19.1971 11.8164 17 11.8164C14.8029 11.8164 13.0234 13.5645 13.0234 15.7227C13.0234 17.8809 14.8029 19.6289 17 19.6289Z" fill="url(#paint0_linear_483_1908)"/>
<defs>
<linearGradient id="paint0_linear_483_1908" x1="17" y1="50" x2="17" y2="2.50541e-08" gradientUnits="userSpaceOnUse">
<stop stop-opacity="0"/>
<stop offset="1" stop-opacity="0.3"/>
</linearGradient>
</defs>
</svg>
