<?xml version="1.0" encoding="utf-8"?>
<!-- Generator: Adobe Illustrator 27.0.0, SVG Export Plug-In . SVG Version: 6.00 Build 0)  -->
<svg version="1.1" id="Layer_1" xmlns="http://www.w3.org/2000/svg" xmlns:xlink="http://www.w3.org/1999/xlink" x="0px" y="0px"
	 viewBox="0 0 512 512" style="enable-background:new 0 0 512 512;" xml:space="preserve">
<path d="M290.6,40l3.8,19.5c4.7,24.3,19.8,45.3,41.4,57.8l0.3,0.2c13.2,7.6,28.1,11.7,43.3,11.7c9.4,0,18.7-1.5,27.6-4.6l14.5-5
	c0.6-0.2,1.2-0.3,1.8-0.3c1.5,0,3.6,0.7,4.7,2.7l30.1,52.1c1.3,2.3,0.8,5.1-1.1,6.8L445.3,191c-18.7,16.2-29.3,39.7-29.3,64.5l0,0.5
	l0,0.5c0,24.7,10.7,48.2,29.3,64.5l15,13.1l-34.6,59.9l-18.8-6.4c-8.9-3.1-18.2-4.6-27.6-4.6c-15.1,0-30.1,4-43.3,11.7l-0.3,0.2
	c-21.6,12.5-36.7,33.5-41.4,57.8l-3.8,19.5h-69.1l-3.8-19.5c-4.7-24.3-19.8-45.3-41.5-57.8l-0.3-0.1c-13.2-7.6-28.1-11.7-43.3-11.7
	c-9.4,0-18.7,1.5-27.6,4.6l-18.8,6.4l-34.6-59.9l15-13.1C85.3,304.8,96,281.3,96,256.5l0-0.5l0-0.5c0-24.7-10.7-48.2-29.3-64.5
	l-15-13.1l34.6-59.9l18.8,6.4c8.9,3.1,18.2,4.6,27.6,4.6c15.1,0,30.1-4,43.3-11.7l0.3-0.2c21.6-12.5,36.7-33.5,41.4-57.8l3.8-19.5
	H290.6 M307,0H205c-9.6,0-17.8,6.8-19.6,16.2l-7,35.7c-2.5,13-10.7,24.2-22.2,30.8c-0.1,0.1-0.2,0.1-0.4,0.2
	c-7.1,4.1-15.2,6.3-23.2,6.3c-4.9,0-9.9-0.8-14.6-2.4L83.6,74.9c-2.1-0.7-4.3-1.1-6.5-1.1c-7,0-13.7,3.7-17.3,10l-51,88.4
	c-4.8,8.3-3,18.8,4.2,25.1l27.4,23.9c9.9,8.6,15.6,21.1,15.6,34.3l0,0.5l0,0.5c0,13.1-5.7,25.7-15.6,34.3L13,314.7
	c-7.2,6.3-9,16.8-4.2,25.1l51,88.4c3.7,6.3,10.3,10,17.3,10c2.2,0,4.4-0.4,6.5-1.1l34.4-11.8c4.8-1.6,9.7-2.4,14.6-2.4
	c8.1,0,16.1,2.1,23.2,6.3c0.1,0.1,0.2,0.1,0.4,0.2c11.5,6.6,19.6,17.8,22.2,30.8l7,35.7c1.8,9.4,10.1,16.2,19.6,16.2H307
	c9.6,0,17.8-6.8,19.6-16.2l7-35.7c2.5-13,10.7-24.2,22.2-30.8c0.1-0.1,0.2-0.1,0.4-0.2c7.1-4.1,15.2-6.3,23.2-6.3
	c4.9,0,9.9,0.8,14.6,2.4l34.4,11.8c2.1,0.7,4.3,1.1,6.5,1.1c7,0,13.7-3.7,17.3-10l51-88.4c4.8-8.3,3-18.8-4.2-25.1l-27.4-23.9
	c-9.9-8.6-15.6-21.1-15.6-34.3l0-0.5l0-0.5c0-13.1,5.7-25.7,15.6-34.3l11.6-10.1c16.4-14.3,20.4-38.2,9.5-57L462.7,102
	c-8.3-14.4-23.5-22.7-39.4-22.7c-4.9,0-9.9,0.8-14.8,2.5l-14.5,5c-4.8,1.6-9.7,2.4-14.6,2.4c-8.1,0-16.1-2.1-23.2-6.3
	c-0.1-0.1-0.2-0.1-0.4-0.2c-11.5-6.6-19.6-17.8-22.2-30.8l-7-35.7C324.8,6.8,316.6,0,307,0L307,0z M256,196c33.1,0,60,26.9,60,60
	s-26.9,60-60,60s-60-26.9-60-60S222.9,196,256,196 M256,156c-55.2,0-100,44.8-100,100s44.8,100,100,100s100-44.8,100-100
	S311.2,156,256,156L256,156z"/>
</svg>
